# xmcd
#
# Track frame offsets:
#	150
#	20412
#	34658
#	49311
#	65686
#	79582
#	94715
#	108824
#	124007
#	138292
#	152295
#	178160
#	192933
#	208312
#	227017
#	242967
#	256645
#	274009
#	290064
#	306550
#
# Disc length: 4348 seconds
#
# Revision: 1
# Processed by: cddbd v1.5.2PL0 Copyright (c) Steve Scherf et al.
# Submitted via: audiograbber 1.83.01
#
DISCID=1b10fa14
DTITLE=Diversen - Hollandse Nieuwe Jaaroverzicht 2008
DYEAR=1900
DGENRE=
TTITLE0=Rob van Daal and Richard Janse - Ik mis je zo
TTITLE1=Stef Ekkel - Dans de laatste dans
TTITLE2=Nick and Simon - Hoe lang
TTITLE3=Gerard Joling - Het is nog niet voorbij
TTITLE4=Wolter Kroes - Kom terug
TTITLE5=Mick Harren - Zo verliefd op jou
TTITLE6=Ronnie van Bemmel - Ik zoek een meisje
TTITLE7=Bad Brothers - Ik heb jou niets te zeggen
TTITLE8=Marianne Weber - In de hemel
TTITLE9=Bouke - Ik dacht dat ik jou vergeten kon
TTITLE10=Shanti Koor De Hoeksche Waard - Het grote klutslied
TTITLE11=Jeroen Spierenburg - Als ze lacht
TTITLE12=Gebroeders Ko - Schatje, mag ik je foto
TTITLE13=Micky 2 Much - Mijn leven in de nacht
TTITLE14=Nienke - Man van de marine
TTITLE15=John de Reuver - Una fiesta del amor
TTITLE16=Maarten - Het leven is goed op zee
TTITLE17=Jessy - Kom in m'n armen schat
TTITLE18=Liesbeth - Je denkt maar dat je alles mag van mij
TTITLE19=Feest Squad - Vliegend hert
EXTD=
EXTT0=
EXTT1=
EXTT2=
EXTT3=
EXTT4=
EXTT5=
EXTT6=
EXTT7=
EXTT8=
EXTT9=
EXTT10=
EXTT11=
EXTT12=
EXTT13=
EXTT14=
EXTT15=
EXTT16=
EXTT17=
EXTT18=
EXTT19=
PLAYORDER=
